<svg width="17" height="16" viewBox="0 0 17 16" fill="none" xmlns="http://www.w3.org/2000/svg">
<g clip-path="url(#clip0_28_1846)">
<path fill-rule="evenodd" clip-rule="evenodd" d="M4.86401 14.7064L7.09114 15.3289V14.5148L7.27296 14.3232H8.54572V15.2812V15.9515H7.18245L5.49999 15.185L4.86401 14.7064Z" fill="#CDBDB2"/>
<path fill-rule="evenodd" clip-rule="evenodd" d="M12.1369 14.7064L9.95507 15.3289V14.5148L9.77325 14.3232H8.50049V15.2812V15.9515H9.86375L11.5454 15.185L12.1369 14.7064Z" fill="#CDBDB2"/>
<path fill-rule="evenodd" clip-rule="evenodd" d="M7.27289 12.9342L7.09106 14.5148L7.31814 14.3232H9.68183L9.95497 14.5148L9.77315 12.9342L9.4095 12.694L7.59128 12.7426L7.27289 12.9342Z" fill="#393939"/>
<path fill-rule="evenodd" clip-rule="evenodd" d="M6.12012 2.18182L7.21105 4.86439L7.71127 12.6728H9.48424L10.0297 4.86439L11.0293 2.18182H6.12012Z" fill="#F89C35"/>
<path fill-rule="evenodd" clip-rule="evenodd" d="M1.27276 8.14393L0 12.0239L3.1823 11.8322H5.2276V10.1554L5.13628 6.70642L4.68213 7.08964L1.27276 8.14393Z" fill="#F89D35"/>
<path fill-rule="evenodd" clip-rule="evenodd" d="M3.68164 8.57483L7.40941 8.67021L7.00051 10.6826L5.22754 10.2031L3.68164 8.57483Z" fill="#D87C30"/>
<path fill-rule="evenodd" clip-rule="evenodd" d="M3.68164 8.6225L5.22754 10.1554V11.6883L3.68164 8.6225Z" fill="#EA8D3A"/>
<path fill-rule="evenodd" clip-rule="evenodd" d="M5.22754 10.2031L7.04576 10.6826L7.63648 12.7426L7.22759 12.9819L5.22754 11.736V10.2031Z" fill="#F89D35"/>
<path fill-rule="evenodd" clip-rule="evenodd" d="M5.22766 11.736L4.86401 14.7064L7.27296 12.9342L5.22766 11.736Z" fill="#EB8F35"/>
<path fill-rule="evenodd" clip-rule="evenodd" d="M7.40955 8.67023L7.63663 12.7426L6.95459 10.6587L7.40955 8.67023Z" fill="#EA8E3A"/>
<path fill-rule="evenodd" clip-rule="evenodd" d="M3.13623 11.7846L5.22759 11.736L4.86395 14.7064L3.13623 11.7846Z" fill="#D87C30"/>
<path fill-rule="evenodd" clip-rule="evenodd" d="M1.00043 16L4.86395 14.7064L3.13624 11.7845L0 12.0238L1.00043 16Z" fill="#EB8F35"/>
<path fill-rule="evenodd" clip-rule="evenodd" d="M7.13627 4.9342L5.18228 6.65871L3.68164 8.57483L7.40941 8.71875L7.13627 4.9342Z" fill="#E8821E"/>
<path fill-rule="evenodd" clip-rule="evenodd" d="M4.86401 14.7064L7.27296 12.9342L7.09114 14.4671V15.3289L5.45473 14.9934L4.86401 14.7064Z" fill="#DFCEC3"/>
<path fill-rule="evenodd" clip-rule="evenodd" d="M12.1369 14.7064L9.77319 12.9342L9.95502 14.4671V15.3289L11.5914 14.9934L12.1369 14.7064Z" fill="#DFCEC3"/>
<path fill-rule="evenodd" clip-rule="evenodd" d="M6.40899 9.5329L6.9092 10.6349L5.13623 10.1554L6.40899 9.5329Z" fill="#393939"/>
<path fill-rule="evenodd" clip-rule="evenodd" d="M0.954346 0L7.13631 4.93421L6.09144 2.25165L0.954346 0Z" fill="#E88F35"/>
<path fill-rule="evenodd" clip-rule="evenodd" d="M0.95508 0L0.136475 2.63487L0.591435 5.50905L0.273044 5.70066L0.727196 6.13157L0.363551 6.46711L0.863765 6.94571L0.545373 7.23355L1.27266 8.19161L4.68204 7.08963C6.34834 5.68448 7.16668 4.96601 7.13705 4.93421C7.10742 4.90242 5.04676 3.25768 0.95508 0Z" fill="#8E5A30"/>
<path fill-rule="evenodd" clip-rule="evenodd" d="M15.7272 8.14393L17 12.0239L13.8185 11.8322H11.7732V10.1554L11.8637 6.70642L12.3187 7.08964L15.7272 8.14393Z" fill="#F89D35"/>
<path fill-rule="evenodd" clip-rule="evenodd" d="M13.3183 8.57483L9.59131 8.67021L10.0002 10.6826L11.7732 10.2031L13.3183 8.57483Z" fill="#D87C30"/>
<path fill-rule="evenodd" clip-rule="evenodd" d="M13.3183 8.6225L11.7732 10.1554V11.6883L13.3183 8.6225Z" fill="#EA8D3A"/>
<path fill-rule="evenodd" clip-rule="evenodd" d="M11.7733 10.2031L9.95505 10.6826L9.36353 12.7426L9.77323 12.9819L11.7733 11.736V10.2031Z" fill="#F89D35"/>
<path fill-rule="evenodd" clip-rule="evenodd" d="M11.7732 11.736L12.1369 14.7064L9.77319 12.9819L11.7732 11.736Z" fill="#EB8F35"/>
<path fill-rule="evenodd" clip-rule="evenodd" d="M9.59141 8.67023L9.36353 12.7426L10.0456 10.6587L9.59141 8.67023Z" fill="#EA8E3A"/>
<path fill-rule="evenodd" clip-rule="evenodd" d="M13.8637 11.7846L11.7732 11.736L12.1368 14.7064L13.8637 11.7846Z" fill="#D87C30"/>
<path fill-rule="evenodd" clip-rule="evenodd" d="M16.0005 16L12.137 14.7064L13.8639 11.7845L17.0001 12.0238L16.0005 16Z" fill="#EB8F35"/>
<path fill-rule="evenodd" clip-rule="evenodd" d="M9.86364 4.9342L11.8184 6.65871L13.3183 8.57483L9.59131 8.71875L9.86364 4.9342Z" fill="#E8821E"/>
<path fill-rule="evenodd" clip-rule="evenodd" d="M10.591 9.5329L10.0908 10.6349L11.8638 10.1554L10.591 9.5329Z" fill="#393939"/>
<path fill-rule="evenodd" clip-rule="evenodd" d="M16.0457 0L9.86377 4.93421L10.9095 2.25165L16.0457 0Z" fill="#E88F35"/>
<path fill-rule="evenodd" clip-rule="evenodd" d="M16.0455 0L16.8641 2.63487L16.4092 5.50905L16.7276 5.70066L16.2734 6.13157L16.6371 6.46711L16.1369 6.94571L16.4552 7.23355L15.728 8.19161L12.3186 7.08963C10.6523 5.68448 9.83394 4.96601 9.86357 4.93421C9.8932 4.90242 11.9539 3.25768 16.0455 0Z" fill="#8E5A30"/>
</g>
<defs>
<clipPath id="clip0_28_1846">
<rect width="17" height="16" fill="white"/>
</clipPath>
</defs>
</svg>
