<svg width="26" height="26" viewBox="0 0 26 26" fill="none" xmlns="http://www.w3.org/2000/svg">
<path d="M13 0C20.1803 0 26 5.82087 26 13C26 20.1791 20.1803 26 13 26C5.81967 26 0 20.1799 0 13C0 5.82015 5.82087 0 13 0Z" fill="#F5AC37"/>
<path d="M13.63 13.8823H18.4158C18.518 13.8823 18.566 13.8823 18.5735 13.7497C18.6127 13.2674 18.6127 12.7827 18.5735 12.3003C18.5735 12.2068 18.5268 12.168 18.4237 12.168H8.89931C8.78129 12.168 8.74957 12.2068 8.74957 12.3162V13.7033C8.74957 13.8823 8.74957 13.8823 8.93826 13.8823H13.63ZM18.0382 10.5469C18.052 10.5119 18.052 10.473 18.0382 10.4379C17.9589 10.2659 17.8636 10.1016 17.7536 9.947C17.5885 9.68361 17.3928 9.44026 17.1706 9.22192C17.066 9.08982 16.9443 8.97196 16.8086 8.87139C16.1276 8.2974 15.3188 7.89143 14.4487 7.68678C14.0095 7.58934 13.5604 7.54223 13.1104 7.54638H8.88275C8.76496 7.54638 8.7491 7.59257 8.7491 7.69463V10.4617C8.7491 10.5772 8.7491 10.6097 8.89861 10.6097H17.9822C17.9822 10.6097 18.0611 10.594 18.0769 10.5476H18.0389L18.0382 10.5469ZM18.0382 15.5033C17.9045 15.4888 17.7696 15.4888 17.6359 15.5033H8.90724C8.78922 15.5033 8.74957 15.5033 8.74957 15.6594V18.3639C8.74957 18.4886 8.74957 18.52 8.90724 18.52H12.9376C13.1298 18.5344 13.3231 18.5214 13.5115 18.4812C14.0966 18.4399 14.6724 18.3137 15.2205 18.1069C15.4204 18.0382 15.6127 17.9495 15.7945 17.8421H15.8495C16.7938 17.3565 17.5616 16.5913 18.0459 15.6532C18.0459 15.6532 18.1007 15.5354 18.0389 15.5045L18.0382 15.5033ZM7.16776 19.9222V15.6128C7.16776 15.5112 7.16776 15.4959 7.04205 15.4959H5.33359C5.23913 15.4959 5.19995 15.4959 5.19995 15.3715V13.8906H7.02619C7.12811 13.8906 7.16776 13.8906 7.16776 13.7583V12.2931C7.16776 12.1994 7.16776 12.1763 7.04205 12.1763H5.33359C5.23913 12.1763 5.19995 12.1763 5.19995 12.0518V10.6804C5.19995 10.5945 5.19995 10.5716 5.32566 10.5716H7.01826C7.13604 10.5716 7.16776 10.5716 7.16776 10.4234V6.22277C7.16776 6.09807 7.16776 6.06667 7.32543 6.06667H13.2289C13.6567 6.08335 14.0829 6.13027 14.504 6.20706C15.3715 6.36638 16.2048 6.67218 16.9676 7.1111C17.4727 7.40514 17.9381 7.76127 18.3528 8.17102C18.6639 8.49117 18.9458 8.83798 19.195 9.20737C19.4425 9.5819 19.6487 9.98168 19.8099 10.3998C19.8195 10.4523 19.8496 10.4988 19.8936 10.5295C19.9377 10.5601 19.9921 10.5725 20.0452 10.5638H21.4542C21.6349 10.5638 21.6349 10.5638 21.6429 10.7354V12.0137C21.6429 12.1382 21.5962 12.1696 21.4693 12.1696H20.3829C20.2731 12.1696 20.2411 12.1696 20.249 12.31C20.2922 12.7842 20.2922 13.2614 20.249 13.7357C20.249 13.8682 20.249 13.8839 20.3992 13.8839H21.6422C21.6972 13.9532 21.6422 14.0243 21.6422 14.095C21.6501 14.1855 21.6501 14.2765 21.6422 14.367V15.311C21.6422 15.4435 21.6032 15.4828 21.4847 15.4828H19.9969C19.9469 15.4735 19.8952 15.4837 19.8526 15.5113C19.8101 15.5388 19.7799 15.5817 19.7686 15.6308C19.414 16.5432 18.8476 17.3602 18.1152 18.0157C17.8476 18.2547 17.5664 18.4783 17.2729 18.6854C16.9578 18.865 16.6514 19.0518 16.3283 19.2001C15.7336 19.4645 15.1102 19.6605 14.4704 19.7841C13.8624 19.8915 13.2454 19.9412 12.6278 19.9323H7.16543V19.9245L7.16776 19.9222Z" fill="#FEFEFD"/>
<path d="M18.3857 23.7714C21.3602 23.7714 23.7714 21.3602 23.7714 18.3857C23.7714 15.4113 21.3602 13 18.3857 13C15.4113 13 13 15.4113 13 18.3857C13 21.3602 15.4113 23.7714 18.3857 23.7714Z" fill="url(#paint0_radial_636_317)"/>
<path d="M15.2727 18.1667C15.3511 18.1676 15.426 18.1994 15.4811 18.2552C15.5362 18.311 15.5671 18.3863 15.5671 18.4647C15.5661 19.0913 15.7791 19.6995 16.1709 20.1885C16.5627 20.6776 17.1097 21.0182 17.7214 21.154C17.9135 21.1973 18.1098 21.219 18.3066 21.2186C18.3796 21.2266 18.447 21.2613 18.496 21.316C18.5449 21.3706 18.572 21.4414 18.572 21.5148C18.572 21.5882 18.5449 21.659 18.496 21.7136C18.447 21.7683 18.3796 21.803 18.3066 21.811C18.054 21.8117 17.8021 21.7828 17.5562 21.7248C16.8264 21.5533 16.1754 21.1415 15.7079 20.5554C15.2403 19.9693 14.9834 19.2431 14.9783 18.4934V18.4467C14.982 18.3712 15.0146 18.2999 15.0694 18.2478C15.1242 18.1956 15.197 18.1666 15.2727 18.1667ZM18.3856 16.3427C18.7926 16.3413 19.1908 16.4608 19.5297 16.6861C19.8686 16.9114 20.133 17.2323 20.2892 17.608C20.4454 17.9838 20.4865 18.3975 20.4072 18.7967C20.3279 19.1958 20.1317 19.5624 19.8437 19.85C19.5557 20.1375 19.1888 20.3329 18.7895 20.4115C18.3902 20.4901 17.9766 20.4483 17.6011 20.2915C17.2255 20.1346 16.9051 19.8697 16.6804 19.5304C16.4557 19.1911 16.3369 18.7926 16.3391 18.3857C16.341 17.8438 16.5573 17.3247 16.9408 16.9419C17.3243 16.5591 17.8438 16.3437 18.3856 16.3427ZM18.3856 17.2116C18.1507 17.2109 17.9208 17.2801 17.7253 17.4103C17.5297 17.5406 17.3773 17.726 17.2874 17.9431C17.1975 18.1601 17.1742 18.399 17.2204 18.6294C17.2666 18.8598 17.3802 19.0712 17.5468 19.2368C17.7135 19.4025 17.9256 19.5148 18.1562 19.5596C18.3869 19.6044 18.6256 19.5796 18.8422 19.4884C19.0587 19.3971 19.2432 19.2436 19.3722 19.0472C19.5013 18.8509 19.569 18.6206 19.5669 18.3857C19.565 18.0736 19.4397 17.775 19.2184 17.5551C18.9971 17.3351 18.6977 17.2116 18.3856 17.2116ZM21.3406 18.9279C21.4011 18.9279 21.4603 18.9459 21.5105 18.9796C21.5608 19.0132 21.5999 19.0611 21.6229 19.1171C21.6459 19.1731 21.6517 19.2346 21.6396 19.2939C21.6276 19.3532 21.5981 19.4076 21.5551 19.4501C21.5121 19.4927 21.4573 19.5214 21.3979 19.5328C21.3385 19.5442 21.277 19.5376 21.2213 19.514C21.1656 19.4903 21.1182 19.4506 21.0851 19.4C21.052 19.3493 21.0347 19.29 21.0354 19.2295C21.0363 19.1491 21.0689 19.0724 21.1261 19.016C21.1832 18.9595 21.2603 18.9279 21.3406 18.9279ZM18.4682 14.9783C19.343 14.9811 20.1816 15.3273 20.8035 15.9425C21.4254 16.5577 21.7808 17.3925 21.793 18.2672V18.3282C21.793 18.4063 21.762 18.4812 21.7068 18.5364C21.6515 18.5916 21.5767 18.6227 21.4986 18.6227C21.4205 18.6227 21.3456 18.5916 21.2904 18.5364C21.2352 18.4812 21.2042 18.4063 21.2042 18.3282C21.2071 17.6078 20.9261 16.9153 20.4221 16.4005C19.9181 15.8857 19.2316 15.5902 18.5113 15.5779H18.4539C18.3809 15.5699 18.3135 15.5352 18.2645 15.4806C18.2156 15.4259 18.1885 15.3551 18.1885 15.2817C18.1885 15.2083 18.2156 15.1375 18.2645 15.0829C18.3135 15.0282 18.3809 14.9936 18.4539 14.9855L18.4682 14.9783ZM15.4307 17.2547C15.4912 17.254 15.5505 17.2713 15.6012 17.3044C15.6519 17.3375 15.6915 17.3849 15.7152 17.4406C15.7388 17.4963 15.7454 17.5578 15.734 17.6172C15.7227 17.6766 15.6939 17.7313 15.6513 17.7744C15.6088 17.8174 15.5544 17.8469 15.4951 17.8589C15.4358 17.871 15.3743 17.8652 15.3183 17.8422C15.2623 17.8192 15.2145 17.7801 15.1808 17.7298C15.1471 17.6795 15.1291 17.6204 15.1291 17.5599C15.1291 17.4796 15.1607 17.4025 15.2172 17.3453C15.2736 17.2882 15.3504 17.2556 15.4307 17.2547Z" fill="white"/>
<defs>
<radialGradient id="paint0_radial_636_317" cx="0" cy="0" r="1" gradientUnits="userSpaceOnUse" gradientTransform="translate(23.7355 23.7355) scale(15.1877)">
<stop stop-color="#008C6D"/>
<stop offset="1" stop-color="#0767B2"/>
</radialGradient>
</defs>
</svg>
