<svg width="26" height="26" viewBox="0 0 26 26" fill="none" xmlns="http://www.w3.org/2000/svg">
<circle cx="13" cy="13" r="13" fill="#EEF1F7"/>
<g clip-path="url(#clip0_29_749)">
<path d="M13 10.3873L19.5 13.3924L13 2.32141V10.3873Z" fill="#2F3030"/>
<path d="M13 17.7909L19.5 13.9896L13 11.1146V17.7909Z" fill="#131313"/>
<path d="M13 18.5221V23.6824L19.2752 14.7284L13 18.5221Z" fill="#323333"/>
<path d="M13 2.32141L6.5 13.3924L13 10.3911V2.32141Z" fill="#C9CDCE"/>
<path d="M6.5 13.9896L13 17.7909V11.1146L6.5 13.9896Z" fill="#343535"/>
<path d="M13.0774 23.6824V18.5221L6.80212 14.7284L13.0774 23.6824Z" fill="#828384"/>
</g>
<path d="M18.3857 23.7714C21.3602 23.7714 23.7714 21.3602 23.7714 18.3857C23.7714 15.4113 21.3602 13 18.3857 13C15.4113 13 13 15.4113 13 18.3857C13 21.3602 15.4113 23.7714 18.3857 23.7714Z" fill="url(#paint0_radial_29_749)"/>
<path d="M15.2727 18.1667C15.3511 18.1676 15.426 18.1994 15.4811 18.2552C15.5362 18.311 15.5671 18.3863 15.5671 18.4647C15.5661 19.0913 15.7791 19.6995 16.1709 20.1885C16.5627 20.6776 17.1097 21.0182 17.7214 21.154C17.9135 21.1973 18.1098 21.219 18.3066 21.2186C18.3796 21.2266 18.447 21.2613 18.496 21.316C18.5449 21.3706 18.572 21.4414 18.572 21.5148C18.572 21.5882 18.5449 21.659 18.496 21.7136C18.447 21.7683 18.3796 21.803 18.3066 21.811C18.054 21.8117 17.8021 21.7828 17.5562 21.7248C16.8264 21.5533 16.1754 21.1415 15.7079 20.5554C15.2403 19.9693 14.9834 19.2431 14.9783 18.4934V18.4467C14.982 18.3712 15.0146 18.2999 15.0694 18.2478C15.1242 18.1956 15.197 18.1666 15.2727 18.1667ZM18.3856 16.3427C18.7926 16.3413 19.1908 16.4608 19.5297 16.6861C19.8686 16.9114 20.133 17.2323 20.2892 17.608C20.4454 17.9838 20.4865 18.3975 20.4072 18.7967C20.3279 19.1958 20.1317 19.5624 19.8437 19.85C19.5557 20.1375 19.1888 20.3329 18.7895 20.4115C18.3902 20.4901 17.9766 20.4483 17.6011 20.2915C17.2255 20.1346 16.9051 19.8697 16.6804 19.5304C16.4557 19.1911 16.3369 18.7926 16.3391 18.3857C16.341 17.8438 16.5573 17.3247 16.9408 16.9419C17.3243 16.5591 17.8438 16.3437 18.3856 16.3427ZM18.3856 17.2116C18.1507 17.2109 17.9208 17.2801 17.7253 17.4103C17.5297 17.5406 17.3773 17.726 17.2874 17.9431C17.1975 18.1601 17.1742 18.399 17.2204 18.6294C17.2666 18.8598 17.3802 19.0712 17.5468 19.2368C17.7135 19.4025 17.9256 19.5148 18.1562 19.5596C18.3869 19.6044 18.6256 19.5796 18.8422 19.4884C19.0587 19.3971 19.2432 19.2436 19.3722 19.0472C19.5013 18.8509 19.569 18.6206 19.5669 18.3857C19.565 18.0736 19.4397 17.775 19.2184 17.5551C18.9971 17.3351 18.6977 17.2116 18.3856 17.2116ZM21.3406 18.9279C21.4011 18.9279 21.4603 18.9459 21.5105 18.9796C21.5608 19.0132 21.5999 19.0611 21.6229 19.1171C21.6459 19.1731 21.6517 19.2346 21.6396 19.2939C21.6276 19.3532 21.5981 19.4076 21.5551 19.4501C21.5121 19.4927 21.4573 19.5214 21.3979 19.5328C21.3385 19.5442 21.277 19.5376 21.2213 19.514C21.1656 19.4903 21.1182 19.4506 21.0851 19.4C21.052 19.3493 21.0347 19.29 21.0354 19.2295C21.0363 19.1491 21.0689 19.0724 21.1261 19.016C21.1832 18.9595 21.2603 18.9279 21.3406 18.9279ZM18.4682 14.9783C19.343 14.9811 20.1816 15.3273 20.8035 15.9425C21.4254 16.5577 21.7808 17.3925 21.793 18.2672V18.3282C21.793 18.4063 21.762 18.4812 21.7068 18.5364C21.6515 18.5916 21.5767 18.6227 21.4986 18.6227C21.4205 18.6227 21.3456 18.5916 21.2904 18.5364C21.2352 18.4812 21.2042 18.4063 21.2042 18.3282C21.2071 17.6078 20.9261 16.9153 20.4221 16.4005C19.9181 15.8857 19.2316 15.5902 18.5113 15.5779H18.4539C18.3809 15.5699 18.3135 15.5352 18.2645 15.4806C18.2156 15.4259 18.1885 15.3551 18.1885 15.2817C18.1885 15.2083 18.2156 15.1375 18.2645 15.0829C18.3135 15.0282 18.3809 14.9936 18.4539 14.9855L18.4682 14.9783ZM15.4307 17.2547C15.4912 17.254 15.5505 17.2713 15.6012 17.3044C15.6519 17.3375 15.6915 17.3849 15.7152 17.4406C15.7388 17.4963 15.7454 17.5578 15.734 17.6172C15.7227 17.6766 15.6939 17.7313 15.6513 17.7744C15.6088 17.8174 15.5544 17.8469 15.4951 17.8589C15.4358 17.871 15.3743 17.8652 15.3183 17.8422C15.2623 17.8192 15.2145 17.7801 15.1808 17.7298C15.1471 17.6795 15.1291 17.6204 15.1291 17.5599C15.1291 17.4796 15.1607 17.4025 15.2172 17.3453C15.2736 17.2882 15.3504 17.2556 15.4307 17.2547Z" fill="white"/>
<defs>
<radialGradient id="paint0_radial_29_749" cx="0" cy="0" r="1" gradientUnits="userSpaceOnUse" gradientTransform="translate(23.7355 23.7355) scale(15.1877)">
<stop stop-color="#008C6D"/>
<stop offset="1" stop-color="#0767B2"/>
</radialGradient>
<clipPath id="clip0_29_749">
<rect width="13" height="21.3571" fill="white" transform="translate(6.5 2.32141)"/>
</clipPath>
</defs>
</svg>
