<svg width="127" height="28" viewBox="0 0 127 28" fill="none" xmlns="http://www.w3.org/2000/svg">
<g clip-path="url(#clip0_599_549)">
<path d="M29.8074 14.3588C29.8205 14.814 29.8007 15.2695 29.7482 15.7218C29.4204 17.4883 28.0186 18.6305 26.1792 18.6305C24.3398 18.6305 22.9739 17.5159 22.6399 15.724C22.5762 15.2718 22.5465 14.8154 22.5511 14.3588V5.44158H18.6946V14.2717C18.6879 14.9552 18.7282 15.6384 18.8151 16.3163C19.2105 18.9363 20.8089 22.0488 26.1792 22.0488C28.6001 22.0488 32.7759 21.2908 33.5433 16.2186C33.6411 15.5315 33.6913 14.8384 33.6935 14.1443V5.43945H29.8074V14.3588Z" fill="#123ACC"/>
<path d="M84.363 5.10828C82.3713 5.10828 80.8955 5.87898 79.8109 7.0913V5.43736H75.9248V21.6051H79.8109V13.1125C79.8109 11.2781 80.4452 8.83864 83.5596 8.83864C86.9911 8.83864 87.2469 11.5202 87.2469 13.0212V21.6157H91.1626V12.8025C91.1626 8.12738 88.4922 5.10828 84.363 5.10828Z" fill="#123ACC"/>
<path d="M122.985 5.43738L118.587 17.2314L113.661 5.43738H109.375L116.464 21.5393L113.902 28H118.065L127 5.43738H122.985Z" fill="#123ACC"/>
<path d="M51.3754 7.15502C51.847 6.53615 52.4587 6.03905 53.1598 5.70491C53.8674 5.37405 54.6395 5.20577 55.42 5.21234C55.6812 5.21133 55.9421 5.23122 56.2002 5.2718V9.09345C55.9136 9.04086 55.6226 9.01599 55.3312 9.01915C52.7052 9.01915 51.3754 10.3567 51.3754 12.8578V21.603H47.4893V5.4374H51.3754V7.15502Z" fill="#123ACC"/>
<path d="M73.2966 14.9618C73.4382 14.1465 73.3769 12.225 73.2733 11.6242C72.5777 7.53291 69.531 5.10828 65.2855 5.10828C60.5283 5.10828 57.2046 8.62845 57.2046 13.6709C57.2046 18.6051 60.5283 22.0531 65.2855 22.0531C68.7339 22.0531 71.047 20.9618 72.897 18.4034L69.937 16.3949C68.9496 17.8514 67.3533 18.6008 65.3996 18.6008C62.8625 18.6008 61.2154 16.69 61.2091 14.9618H73.2966ZM69.4697 11.8981H61.2239C61.5009 9.9172 63.1268 8.59023 65.2897 8.59023C67.5182 8.59023 69.1906 9.9172 69.4697 11.8981Z" fill="#123ACC"/>
<path d="M4.01718 17.9851H6.83131V21.5945H0V0.443742H6.83131V4.05308H4.01718V17.9851ZM17.4663 2.14226L14.2948 0L6.02154 11.0234L14.2948 22.0488L17.4663 19.9045L10.8041 11.0234L17.4663 2.14226Z" fill="#123ACC"/>
<path d="M93.5581 13.5796C93.5581 8.59236 97.015 5.10828 101.965 5.10828C105.09 5.10828 107.618 6.49682 109.06 8.77495L106.142 10.7516C105.216 9.5138 103.984 8.70913 101.965 8.70913C99.3132 8.70913 97.5245 10.6667 97.5245 13.5796C97.5245 16.4926 99.3048 18.4501 101.965 18.4501C103.984 18.4501 105.216 17.6476 106.142 16.4098L109.06 18.3864C107.618 20.6645 105.09 22.0531 101.965 22.0531C97.015 22.0531 93.5581 18.569 93.5581 13.5796Z" fill="#123ACC"/>
<path d="M40.7933 7.15502C41.2654 6.53661 41.8771 6.03961 42.5778 5.70491C43.2854 5.37405 44.0575 5.20577 44.838 5.21234C45.0999 5.21142 45.3615 5.23131 45.6203 5.2718V9.09345C45.3329 9.04096 45.0413 9.01608 44.7492 9.01915C42.1232 9.01915 40.7933 10.3567 40.7933 12.8578V21.603H36.9072V5.4374H40.7933V7.15502Z" fill="#123ACC"/>
</g>
<defs>
<clipPath id="clip0_599_549">
<rect width="127" height="28" fill="white"/>
</clipPath>
</defs>
</svg>
