<svg width="26" height="26" viewBox="0 0 26 26" fill="none" xmlns="http://www.w3.org/2000/svg">
<circle cx="13" cy="13" r="13" fill="white"/>
<path fill-rule="evenodd" clip-rule="evenodd" d="M13 0C15.5712 0 18.0846 0.762437 20.2224 2.1909C22.3602 3.61935 24.0265 5.64968 25.0104 8.02512C25.9944 10.4006 26.2518 13.0144 25.7502 15.5362C25.2486 18.0579 24.0105 20.3743 22.1924 22.1924C20.3743 24.0105 18.0579 25.2486 15.5362 25.7502C13.0144 26.2518 10.4006 25.9944 8.02512 25.0104C5.64968 24.0265 3.61935 22.3603 2.1909 20.2224C0.762437 18.0846 0 15.5712 0 13C0 9.55219 1.36964 6.24558 3.80761 3.80761C6.24558 1.36964 9.55219 0 13 0V0ZM15.9692 3.848C15.909 3.82376 15.8436 3.81535 15.7793 3.82358C15.7149 3.8318 15.6537 3.85638 15.6016 3.89498C15.5494 3.93357 15.508 3.98489 15.4814 4.04403C15.4547 4.10317 15.4436 4.16816 15.4492 4.2328V4.992C15.4505 5.10315 15.4841 5.21153 15.546 5.30388C15.6078 5.39623 15.6953 5.46855 15.7976 5.512C17.3624 6.08398 18.7136 7.12301 19.6682 8.4884C20.6229 9.85379 21.1349 11.4796 21.1349 13.1456C21.1349 14.8116 20.6229 16.4374 19.6682 17.8028C18.7136 19.1682 17.3624 20.2072 15.7976 20.7792C15.6909 20.8163 15.5993 20.8871 15.5364 20.9809C15.4735 21.0747 15.4429 21.1864 15.4492 21.2992V22.0584C15.4436 22.123 15.4547 22.188 15.4814 22.2472C15.508 22.3063 15.5494 22.3576 15.6016 22.3962C15.6537 22.4348 15.7149 22.4594 15.7793 22.4676C15.8436 22.4758 15.909 22.4674 15.9692 22.4432C17.9381 21.8139 19.6561 20.5752 20.8751 18.9059C22.094 17.2366 22.751 15.223 22.751 13.156C22.751 11.089 22.094 9.07544 20.8751 7.40612C19.6561 5.7368 17.9381 4.49807 15.9692 3.8688V3.848ZM10.5612 4.2328C10.5668 4.16816 10.5557 4.10317 10.529 4.04403C10.5024 3.98489 10.461 3.93357 10.4088 3.89498C10.3567 3.85638 10.2955 3.8318 10.2311 3.82358C10.1668 3.81535 10.1014 3.82376 10.0412 3.848C8.07229 4.47727 6.35432 5.716 5.13534 7.38532C3.91635 9.05464 3.25943 11.0682 3.25943 13.1352C3.25943 15.2022 3.91635 17.2158 5.13534 18.8851C6.35432 20.5544 8.07229 21.7931 10.0412 22.4224C10.1014 22.4466 10.1668 22.455 10.2311 22.4468C10.2955 22.4386 10.3567 22.414 10.4088 22.3754C10.461 22.3368 10.5024 22.2855 10.529 22.2264C10.5557 22.1672 10.5668 22.1022 10.5612 22.0376V21.2784C10.5586 21.1675 10.5245 21.0597 10.4628 20.9676C10.4011 20.8755 10.3143 20.8029 10.2128 20.7584C8.64803 20.1864 7.29684 19.1474 6.34219 17.782C5.38754 16.4166 4.87555 14.7908 4.87555 13.1248C4.87555 11.4588 5.38754 9.83299 6.34219 8.4676C7.29684 7.10221 8.64803 6.06318 10.2128 5.4912C10.3147 5.44721 10.4018 5.37476 10.4636 5.28253C10.5254 5.1903 10.5593 5.0822 10.5612 4.9712V4.2328ZM13.4056 6.6352H12.5944C12.4868 6.6352 12.3837 6.67793 12.3076 6.754C12.2315 6.83006 12.1888 6.93323 12.1888 7.0408V8.32C10.5768 8.5488 9.5368 9.62 9.5368 10.998C9.5368 12.7764 10.608 13.468 12.8804 13.7748C14.4404 14.0244 14.8616 14.3572 14.8616 15.236C14.8616 16.1148 14.118 16.6972 13.0676 16.6972C11.648 16.6972 11.1852 16.0732 10.9876 15.2724C10.9707 15.1796 10.922 15.0957 10.8498 15.0349C10.7777 14.9742 10.6867 14.9405 10.5924 14.9396H9.6876C9.63231 14.9397 9.5777 14.9518 9.52748 14.9749C9.47727 14.9981 9.43263 15.0317 9.3966 15.0737C9.36058 15.1156 9.33402 15.1649 9.31873 15.218C9.30344 15.2711 9.29978 15.3269 9.308 15.3816C9.5472 16.7336 10.4156 17.7268 12.1888 17.9816V19.24C12.1888 19.3476 12.2315 19.4507 12.3076 19.5268C12.3837 19.6029 12.4868 19.6456 12.5944 19.6456H13.4056C13.5132 19.6456 13.6163 19.6029 13.6924 19.5268C13.7685 19.4507 13.8112 19.3476 13.8112 19.24V17.9452C15.4908 17.68 16.562 16.51 16.562 15.08C16.562 13.1768 15.4076 12.5424 13.1716 12.2356C11.5284 11.9964 11.206 11.6116 11.206 10.842C11.206 10.0724 11.7676 9.594 12.844 9.594C13.8164 9.594 14.3728 9.932 14.6068 10.7172C14.6314 10.8019 14.6826 10.8765 14.7528 10.9299C14.823 10.9833 14.9086 11.0126 14.9968 11.0136H15.8496C15.9058 11.0139 15.9613 11.0017 16.0122 10.9779C16.0631 10.9541 16.1081 10.9193 16.1439 10.876C16.1797 10.8327 16.2055 10.7821 16.2193 10.7276C16.2332 10.6732 16.2348 10.6163 16.224 10.5612C16.1174 9.97733 15.8249 9.44359 15.39 9.03966C14.9552 8.63573 14.4013 8.38328 13.8112 8.32V7.0408C13.8112 6.93323 13.7685 6.83006 13.6924 6.754C13.6163 6.67793 13.5132 6.6352 13.4056 6.6352Z" fill="#2775CA"/>
<path d="M18.3857 23.7714C21.3602 23.7714 23.7714 21.3602 23.7714 18.3857C23.7714 15.4113 21.3602 13 18.3857 13C15.4113 13 13 15.4113 13 18.3857C13 21.3602 15.4113 23.7714 18.3857 23.7714Z" fill="url(#paint0_radial_636_304)"/>
<path d="M15.2727 18.1667C15.3511 18.1676 15.426 18.1994 15.4811 18.2552C15.5362 18.311 15.5671 18.3863 15.5671 18.4647C15.5661 19.0913 15.7791 19.6995 16.1709 20.1885C16.5627 20.6775 17.1097 21.0182 17.7214 21.1539C17.9135 21.1973 18.1098 21.219 18.3066 21.2186C18.3796 21.2266 18.447 21.2613 18.496 21.3159C18.5449 21.3706 18.572 21.4414 18.572 21.5148C18.572 21.5882 18.5449 21.659 18.496 21.7136C18.447 21.7683 18.3796 21.803 18.3066 21.811C18.054 21.8117 17.8021 21.7828 17.5562 21.7248C16.8264 21.5533 16.1754 21.1415 15.7079 20.5554C15.2403 19.9693 14.9834 19.2431 14.9783 18.4934V18.4467C14.982 18.3712 15.0146 18.2999 15.0694 18.2478C15.1242 18.1956 15.197 18.1666 15.2727 18.1667ZM18.3856 16.3427C18.7926 16.3413 19.1908 16.4608 19.5297 16.6861C19.8686 16.9114 20.133 17.2323 20.2892 17.608C20.4454 17.9838 20.4865 18.3975 20.4072 18.7967C20.3279 19.1958 20.1317 19.5624 19.8437 19.8499C19.5557 20.1375 19.1888 20.3329 18.7895 20.4115C18.3902 20.4901 17.9766 20.4483 17.6011 20.2915C17.2255 20.1346 16.9051 19.8697 16.6804 19.5304C16.4557 19.1911 16.3369 18.7926 16.3391 18.3857C16.341 17.8438 16.5573 17.3247 16.9408 16.9419C17.3243 16.5591 17.8438 16.3437 18.3856 16.3427ZM18.3856 17.2116C18.1507 17.2109 17.9208 17.2801 17.7253 17.4103C17.5297 17.5406 17.3773 17.726 17.2874 17.9431C17.1975 18.1601 17.1742 18.399 17.2204 18.6294C17.2666 18.8598 17.3802 19.0712 17.5468 19.2368C17.7135 19.4025 17.9256 19.5148 18.1562 19.5596C18.3869 19.6044 18.6256 19.5796 18.8422 19.4884C19.0587 19.3971 19.2432 19.2436 19.3722 19.0472C19.5013 18.8509 19.569 18.6206 19.5669 18.3857C19.565 18.0736 19.4397 17.775 19.2184 17.555C18.9971 17.3351 18.6977 17.2116 18.3856 17.2116ZM21.3406 18.9279C21.4011 18.9279 21.4603 18.9459 21.5105 18.9795C21.5608 19.0132 21.5999 19.0611 21.6229 19.1171C21.6459 19.1731 21.6517 19.2346 21.6396 19.2939C21.6276 19.3532 21.5981 19.4076 21.5551 19.4501C21.5121 19.4927 21.4573 19.5214 21.3979 19.5328C21.3385 19.5442 21.277 19.5376 21.2213 19.514C21.1656 19.4903 21.1182 19.4506 21.0851 19.4C21.052 19.3493 21.0347 19.29 21.0354 19.2295C21.0363 19.1491 21.0689 19.0724 21.1261 19.016C21.1832 18.9595 21.2603 18.9278 21.3406 18.9279ZM18.4682 14.9783C19.343 14.9811 20.1816 15.3273 20.8035 15.9425C21.4254 16.5577 21.7808 17.3925 21.793 18.2672V18.3282C21.793 18.4063 21.762 18.4812 21.7068 18.5364C21.6515 18.5916 21.5767 18.6227 21.4986 18.6227C21.4205 18.6227 21.3456 18.5916 21.2904 18.5364C21.2352 18.4812 21.2042 18.4063 21.2042 18.3282C21.2071 17.6078 20.9261 16.9152 20.4221 16.4005C19.9181 15.8857 19.2316 15.5902 18.5113 15.5779H18.4539C18.3809 15.5699 18.3135 15.5352 18.2645 15.4806C18.2156 15.4259 18.1885 15.3551 18.1885 15.2817C18.1885 15.2083 18.2156 15.1375 18.2645 15.0829C18.3135 15.0282 18.3809 14.9936 18.4539 14.9855L18.4682 14.9783ZM15.4307 17.2547C15.4912 17.254 15.5505 17.2713 15.6012 17.3044C15.6519 17.3375 15.6915 17.3849 15.7152 17.4406C15.7388 17.4963 15.7454 17.5578 15.734 17.6172C15.7227 17.6766 15.6939 17.7313 15.6513 17.7744C15.6088 17.8174 15.5544 17.8468 15.4951 17.8589C15.4358 17.871 15.3743 17.8652 15.3183 17.8422C15.2623 17.8192 15.2145 17.7801 15.1808 17.7298C15.1471 17.6795 15.1291 17.6204 15.1291 17.5599C15.1291 17.4796 15.1607 17.4025 15.2172 17.3453C15.2736 17.2882 15.3504 17.2556 15.4307 17.2547Z" fill="white"/>
<defs>
<radialGradient id="paint0_radial_636_304" cx="0" cy="0" r="1" gradientUnits="userSpaceOnUse" gradientTransform="translate(23.7355 23.7355) scale(15.1877)">
<stop stop-color="#008C6D"/>
<stop offset="1" stop-color="#0767B2"/>
</radialGradient>
</defs>
</svg>
