<svg width="26" height="26" viewBox="0 0 26 26" fill="none" xmlns="http://www.w3.org/2000/svg">
<g clip-path="url(#clip0_636_363)">
<path d="M13 26C20.1797 26 26 20.1797 26 13C26 5.8203 20.1797 0 13 0C5.8203 0 0 5.8203 0 13C0 20.1797 5.8203 26 13 26Z" fill="white"/>
<path d="M13.0036 5.35037e-06C11.1028 -0.0017203 9.22481 0.414005 7.50205 1.21785C5.77929 2.0217 4.25376 3.19409 3.03308 4.65232C1.8124 6.11054 0.926296 7.81908 0.437291 9.65739C-0.0517146 11.4957 -0.131714 13.419 0.202937 15.2917H3.08972C3.45902 15.2917 3.68008 15.1719 3.82312 14.9403L4.8374 13.2588L6.13775 17.2932C6.18516 17.4765 6.29389 17.6379 6.4458 17.7506C6.59771 17.8633 6.78363 17.9205 6.97258 17.9127C7.16972 17.9216 7.36342 17.8588 7.51785 17.7358C7.67227 17.6128 7.77698 17.438 7.81261 17.2438L8.75406 12.8033L9.77874 19.8831C9.84116 20.349 10.0674 20.5832 10.5355 20.5832C11.0011 20.5832 11.2247 20.3307 11.2898 19.8674L13.3807 6.08543C13.3949 5.98374 13.3889 5.88026 13.3631 5.78088C13.3373 5.6815 13.2922 5.58819 13.2304 5.50625C13.1686 5.42432 13.0913 5.35537 13.0028 5.30335C12.9144 5.25133 12.8165 5.21726 12.7149 5.20307C12.6133 5.18889 12.5099 5.19487 12.4106 5.22068C12.3113 5.24649 12.2181 5.29162 12.1362 5.35349C11.9709 5.47845 11.8619 5.66403 11.8333 5.8694L10.5459 14.706L9.67991 8.8106C9.66343 8.61269 9.57482 8.42776 9.43096 8.29099C9.2871 8.15421 9.09803 8.07513 8.8997 8.06879C8.47579 8.05838 8.1611 8.32907 8.07268 8.77416L6.82954 14.542L5.83607 11.4473C5.79501 11.2843 5.70579 11.1375 5.58005 11.026C5.45431 10.9146 5.29791 10.8437 5.13128 10.8226C4.67875 10.7679 4.42128 11.0022 4.23143 11.3119L2.69441 13.7326H1.78157C1.76596 13.4957 1.75556 13.2562 1.75556 13.0168C1.75563 10.3337 2.71321 7.73895 4.45573 5.69999C6.19825 3.66103 8.61112 2.31199 11.2595 1.89597C13.908 1.47996 16.6178 2.02431 18.9007 3.43096C21.1835 4.8376 22.8894 7.01402 23.7107 9.56802H25.5416C24.7873 6.81896 23.152 4.39382 20.8869 2.66525C18.6217 0.936675 15.8521 0.000300001 13.0036 5.35037e-06ZM25.8043 10.7367H22.9123C22.543 10.7367 22.3219 10.8564 22.1789 11.0881L21.1646 12.7695L19.8643 8.73512C19.8169 8.5519 19.7081 8.39047 19.5562 8.27775C19.4043 8.16502 19.2184 8.10781 19.0295 8.11564C18.8323 8.10674 18.6386 8.16958 18.4842 8.29255C18.3298 8.41553 18.225 8.59031 18.1894 8.78457L17.248 13.225L16.2233 6.1453C16.1609 5.67939 15.9346 5.44513 15.4665 5.44513C15.001 5.44513 14.7773 5.69761 14.7123 6.16091L12.6213 19.9429C12.5927 20.149 12.647 20.358 12.7724 20.5239C12.8977 20.6899 13.0838 20.7992 13.2897 20.8279C13.4956 20.8565 13.7044 20.8021 13.8702 20.6767C14.0361 20.5513 14.1453 20.365 14.1739 20.159L15.4613 11.3249L16.3273 17.2204C16.3438 17.4183 16.4324 17.6032 16.5763 17.74C16.7201 17.8767 16.9092 17.9558 17.1075 17.9622C17.5314 17.9726 17.8461 17.7019 17.9346 17.2568L19.1777 11.4889L20.1556 14.5837C20.1966 14.7467 20.2858 14.8935 20.4116 15.0049C20.5373 15.1164 20.6937 15.1873 20.8604 15.2084C21.3129 15.263 21.5703 15.0288 21.7602 14.719L23.2972 12.2984H24.2205C24.2361 12.5353 24.2465 12.7747 24.2465 13.0142C24.2426 15.6944 23.2833 18.2852 21.5412 20.3208C19.7991 22.3564 17.3885 23.7031 14.7429 24.1188C12.0973 24.5345 9.3903 23.9918 7.10876 22.5884C4.82722 21.185 3.12084 19.013 2.29651 16.4629H0.465609C1.35796 19.684 3.45446 22.438 6.32059 24.154C9.18672 25.87 12.6027 26.4166 15.8605 25.6804C19.1184 24.9441 21.9683 22.9816 23.8195 20.1995C25.6708 17.4173 26.3815 14.029 25.8043 10.7367Z" fill="#00DB68"/>
</g>
<defs>
<clipPath id="clip0_636_363">
<rect width="26" height="26" fill="white"/>
</clipPath>
</defs>
</svg>
